<svg width="294" height="149" viewBox="0 0 294 149" fill="none" xmlns="http://www.w3.org/2000/svg">
<path d="M111.723 131.483C104.904 119.594 110.762 96.4013 110.762 96.4013L121.152 122.339L140.827 134.151L173.382 104.407C173.382 104.407 176.025 117.571 172.101 125.505C169.465 130.836 164.947 134.696 160.324 138.848C156.187 142.563 147.409 147.031 147.409 147.031C147.409 147.031 136.557 149.937 127.129 146.106C121.246 143.715 115.85 138.678 111.723 131.483Z" fill="#EFC6AF" stroke="black"/>
<path d="M141.29 70.5351L164.381 83.0947V-4.92866L110.727 -4.92866L108.379 83.0947L141.29 70.5351Z" fill="#EF864B" stroke="black"/>
<path d="M68.3162 116.788L77.6736 116.183L82.9037 104.122L79.3814 95.6898H72.9771L69.5259 104.122L68.3162 116.788Z" fill="#C93F3F" stroke="black"/>
<path d="M92.7948 106.755L71.803 100.529L68.0316 113.053L81.2315 116.824L88.632 118.14L101.832 125.185L112.008 132.692L117.7 138.314H122.895L122.183 137.033L113.146 129.348L106.422 123.655L113.929 128.814L122.183 131.839L125.03 131.163L123.927 127.782L116.17 124.687L112.613 122.08L110.976 110.521L113.146 109.068L110.976 104.941H102.793L92.7948 106.755Z" fill="#EF864B"/>
<path d="M109.268 111.665L110.976 110.521M99.3414 109.673L104.607 113.053L109.268 116.824L110.976 120.88L112.613 122.08M112.613 122.08L116.17 124.687L123.927 127.782L125.03 131.163L122.183 131.839L113.929 128.814L106.422 123.655L113.146 129.348L122.183 137.033L122.895 138.314H117.7L112.008 132.692L101.832 125.185L88.632 118.14L81.2315 116.824L68.0316 113.053L71.803 100.529L92.7948 106.755L102.793 104.941H110.976L113.146 109.068L110.976 110.521M112.613 122.08L110.976 110.521" stroke="black"/>
<path d="M199.177 98.8919L204.194 110.669L209.139 110.028L211.915 108.605L212.982 96.3302L208.784 85.9766L201.383 86.7238L199.177 98.8919Z" fill="#C93F3F" stroke="black"/>
<path d="M196.473 113.479L211.203 106.613V94.0886L193.022 101.952H186.511L178.15 102.663L172.137 101.703L168.437 99.6034L170.678 109.566L176.94 112.127L172.742 116.575L168.437 119.03H161.072L158.368 121.485L159.471 123.94H165.377H172.742L167.583 130.308L162.192 134.614H160.467L158.368 138.812L151.608 143.33L153.102 145.679L168.437 138.171L176.94 129.704L196.473 113.479Z" fill="#EF864B"/>
<path d="M158.368 138.812L151.608 143.33L153.102 145.679L168.437 138.171L176.94 129.704L196.473 113.479L211.203 106.613V94.0886L193.022 101.952H186.511L178.15 102.663L172.137 101.703L168.437 99.6034L170.678 109.566L176.94 112.127M158.368 138.812H163.064L168.437 136.108M158.368 138.812L160.467 134.614H162.192M163.918 134.614H162.192M162.192 134.614L167.583 130.308L172.742 123.94M172.742 123.94L176.94 121.485M172.742 123.94H165.377H159.471L158.368 121.485L161.072 119.03H168.437L172.742 116.575L176.94 112.127M176.94 112.127L182.348 105.118" stroke="black"/>
<path d="M141.165 28.822C153.31 29.7637 165.027 48.645 165.027 48.645L176.193 -4.99988L107.667 -4.99988L112.361 53.0657C112.361 53.0657 126.425 27.6789 141.165 28.822Z" fill="#5F1919" stroke="black"/>
<path d="M225.791 23.5348L231.127 -4.99984H158.261L151.892 8.59148L151.892 32.4652V53.3503L156.304 71.9584L163.562 88.147L178.968 87.0084H189.571L192.31 87.7912H195.548L198.466 86.4036L201.846 83.1303L204.55 80.3551L209.46 76.4769L215.508 75.6586L216.86 71.9584H219.6L225.115 74.8403L211.701 79.7503L206.008 80.9955L200.885 85.0872L199.177 87.5066V99.141L202.201 87.3287L205.226 87.0084L209.46 93.0569L211.239 103.375L209.46 108.747H206.186L203.696 110.526L206.186 112.021L215.508 109.566L227.285 106.542L247.885 105.581L256.104 100.778L271.332 92.1319L282.718 88.147L291.47 83.6284L293 74.698L285.315 63.1703L267.205 50.2905L242.94 34.7779L229.348 31.0777L225.791 26.0254V23.5348Z" fill="#EC7609" stroke="black"/>
<path d="M122.681 17.4509L115.388 -4.92857L44.2645 -4.92857L51.7006 35.0271L35.4408 42.3208L20.4263 56.517L0.999969 78.3272V85.7633L7.61774 96.0101L23.7352 105.83L56.2903 114.049L63.8687 120.204L77.7803 116.112L70.7711 116.112L68.3517 112.839L71.1625 104.087L72.7636 98.7853L78.1717 97.8603L82.8326 104.087V97.291L80.4487 88.7519L63.8687 81.3158H67.1776L71.9453 79.7503L77.7803 81.3158L82.8326 85.7633L91.0514 90.1751L93.8978 88.7519L117.736 84.3401L125.67 68.5428L127.591 38.0157L122.681 17.4509Z" fill="#EC7609" stroke="black"/>
<path d="M114.998 101.276C114.998 89.359 118.049 78.5941 122.956 70.8241C127.866 63.0478 134.587 58.3332 141.93 58.3332C149.273 58.3332 155.994 63.0478 160.904 70.8241C165.811 78.5941 168.862 89.359 168.862 101.276C168.862 113.192 165.811 123.957 160.904 131.727C155.994 139.503 149.273 144.218 141.93 144.218C134.587 144.218 127.866 139.503 122.956 131.727C118.049 123.957 114.998 113.192 114.998 101.276Z" fill="#EF864B" stroke="black"/>
<path d="M173.951 97.184L173.026 115.828L167.156 128.85L157.976 138.705C157.976 138.705 150.631 146.513 144.42 147.209C137.242 148.013 129.976 147.699 123.82 142.156C118.948 137.77 116.455 127.071 116.455 127.071L110.478 110.099L109.553 101.703L109.553 91.3134L107.276 81.2089L109.553 74.5555L112.719 79.8924L112.719 69.5032L109.553 60.1814L110.478 52.9944L112.719 57.2639L119.8 65.127L122.966 74.5555L118.305 84.5533L116.455 93.1991L115.672 106.363L118.305 111.273L128.552 108.89L131.754 120.346L133.213 110.099H142.286L141.076 117.927L145.452 108.107L149.046 108.89L151.323 115.828L152.106 108.89H157.976L156.767 115.828L161.712 110.099L165.163 111.273L167.156 99.9948L163.705 90.1393L161.712 81.2089L163.029 73.3814V66.5857L161.712 57.2639L163.029 49.6855L165.163 55.8052L167.156 63.3836L170.998 68.1868V79.8924L172.208 88.0045L173.951 97.184Z" fill="#EFC6AF" stroke="black"/>
<path d="M147.445 79.003C148.646 78.0659 149.046 75.445 149.046 75.445L147.943 71.1755C147.943 71.1755 147.343 67.5192 145.772 65.9809C144.231 64.4716 142.806 63.8737 140.649 63.9173C138.595 63.9588 137.444 64.7352 135.81 65.9809C133.539 67.7128 131.861 72.1361 131.861 72.1361L131.505 76.4057C131.505 76.4057 131.697 77.7934 132.217 78.4693C133.201 79.7496 134.589 79.4864 136.202 79.5722C137.703 79.6522 138.506 78.9673 140.009 79.003C141.306 79.0338 141.985 79.5252 143.282 79.5722C144.922 79.6318 146.151 80.0121 147.445 79.003Z" fill="#EFAFE9" stroke="black"/>
<path d="M145.63 103.624L144.705 102.236L148.69 102.592L152.319 102.912L155.13 103.197H157.407L153.885 104.442L148.69 104.727L145.63 103.624Z" fill="black"/>
<path d="M133.96 104.442L135.455 102.592L134.565 101.809L132.893 102.236L127.841 102.592L124.14 104.442H126.88H131.292H133.96Z" fill="black"/>
<path d="M145.595 88.8584L146.271 86.4034L145.239 84.7668L141.574 82.4185L138.692 82.0272L135.917 83.6994L133.462 85.6207L133.711 88.0045L135.455 90.4951M144.705 102.236L145.63 103.624L148.69 104.727L153.885 104.442L157.407 103.197H155.13L152.319 102.912L148.69 102.592L144.705 102.236ZM135.455 102.592L133.96 104.442H131.292H126.88H124.14L127.841 102.592L132.893 102.236L134.565 101.809L135.455 102.592Z" stroke="black"/>
<path d="M157.407 98.6784L152.782 98.038L148.69 98.6784L147.445 99.1765M134.031 99.1765L130.722 98.6784L126.204 98.038L122.61 99.1765" stroke="black" stroke-width="3"/>
<path d="M147.16 77.5799C147.16 77.5799 148.05 76.3256 148.05 75.4096C148.05 73.346 145.488 68.2581 145.488 68.2581C145.488 68.2581 142.802 66.057 140.685 65.9811C138.405 65.8993 135.81 68.0091 135.81 68.0091C135.81 68.0091 131.256 75.0538 132.893 77.3665C133.673 78.4694 140.685 77.9713 140.685 77.9713L147.16 77.5799Z" fill="black" stroke="black"/>
<path d="M144.563 68.4003C147.323 70.9028 147.16 77.5798 147.16 77.5798L133.462 77.6865C133.462 77.6865 133.298 70.6523 136.308 68.258C137.841 67.0389 139.023 66.1906 140.969 66.4079C142.561 66.5856 143.371 67.3201 144.557 68.3951L144.563 68.4003Z" fill="#C93F3F" stroke="black"/>
<path d="M146.626 76.1567L147.196 77.6735H145.63L143.744 77.7515L140.542 78.069L137.411 78.1135L135.205 78.069L133.462 77.7515V76.1567L134.921 75.3739L137.625 74.5912L140.542 74.2354L143.389 74.9114L145.63 75.8364L146.626 76.1567Z" fill="white"/>
<path d="M145.63 75.8364L146.626 76.1567L147.196 77.6735H145.63M145.63 75.8364L143.389 74.9114M145.63 75.8364V77.6735M143.389 74.9114L140.542 74.2354M143.389 74.9114L143.744 77.7515M140.542 74.2354L137.625 74.5912M140.542 74.2354V78.069M137.625 74.5912L134.921 75.3739M137.625 74.5912L137.411 78.1135M134.921 75.3739L133.462 76.1567V77.7515L135.205 78.069M134.921 75.3739L135.205 78.069M145.63 77.6735L143.744 77.7515M143.744 77.7515L140.542 78.069M140.542 78.069L137.411 78.1135M137.411 78.1135L135.205 78.069" stroke="black"/>
</svg>
